# xmcd CD database file
#
# Track frame offsets:
#	150
#	16557
#	33802
#	52971
#	77345
#	92920
#	119780
#	137094
#	155677
#	175725
#	197051
#	217861
#	238729
#	260915
#	278143
#	307616
#
# Disc length: 4442 seconds
#
# Revision: 0
# Processed by: cddbd v1.5.1PL0 Copyright (c) Steve Scherf et al.
# Submitted via: CDex 1.51
#
DISCID=ce115810
DTITLE=alfie zappacosta - start again
DYEAR=2004
DGENRE=Jazz
TTITLE0=Start Again
TTITLE1=Moon Tatto
TTITLE2=Tear of Hercules
TTITLE3=Passion
TTITLE4=And We'll Dance
TTITLE5=Teke If From Me
TTITLE6=Do I Dare
TTITLE7=The Dance is Over
TTITLE8=We Should Be Lovers
TTITLE9=I'll Be the One
TTITLE10=Chloe, You Thief
TTITLE11=Lofe Disciples
TTITLE12=San Sebastian
TTITLE13=You Are What You Love
TTITLE14=Tu Si Na Cosa Grande
TTITLE15=Data Track
EXTD=YEAR: 2004
EXTT0=
EXTT1=
EXTT2=
EXTT3=
EXTT4=
EXTT5=
EXTT6=
EXTT7=
EXTT8=
EXTT9=
EXTT10=
EXTT11=
EXTT12=
EXTT13=
EXTT14=
EXTT15=
PLAYORDER=
